<?xml version="1.0" encoding="utf-8"?>
<!-- Generator: Adobe Illustrator 26.5.0, SVG Export Plug-In . SVG Version: 6.00 Build 0)  -->
<svg version="1.1" xmlns="http://www.w3.org/2000/svg" xmlns:xlink="http://www.w3.org/1999/xlink" x="0px" y="0px"
	 viewBox="0 0 841.89 595.28" style="enable-background:new 0 0 841.89 595.28;" xml:space="preserve">
<style type="text/css">
	.st0{fill:#E23A26;stroke:#ED1C24;stroke-width:5;stroke-miterlimit:10;}
	.st1{fill:none;stroke:#ED1C24;stroke-width:5;stroke-miterlimit:10;}
</style>
<g id="Layer_1">
	<line class="st0" x1="54.76" y1="297.64" x2="111.73" y2="297.64"/>
	<line class="st1" x1="109.32" y1="230.01" x2="109.32" y2="300.02"/>
	<line class="st1" x1="208.02" y1="230.01" x2="106.83" y2="230.01"/>
	<line class="st1" x1="258.61" y1="230.01" x2="208.02" y2="230.01"/>
	<line class="st1" x1="258.61" y1="263.79" x2="258.61" y2="227.5"/>
	<line class="st1" x1="313.46" y1="265.4" x2="256.09" y2="265.02"/>
	<line class="st1" x1="314.88" y1="297.64" x2="314.82" y2="262.9"/>
	<line class="st1" x1="356.46" y1="297.64" x2="312.38" y2="297.64"/>
	<line class="st1" x1="437.62" y1="297.64" x2="356.46" y2="297.64"/>
	<line class="st1" x1="437.62" y1="231.28" x2="437.62" y2="300.15"/>
	<line class="st1" x1="503.67" y1="231.28" x2="435.13" y2="231.28"/>
	<line class="st1" x1="572.21" y1="231.28" x2="503.67" y2="231.28"/>
	<line class="st1" x1="572.21" y1="255.47" x2="572.21" y2="228.79"/>
	<line class="st1" x1="610.54" y1="255.47" x2="569.72" y2="255.47"/>
	<line class="st1" x1="610.54" y1="296.67" x2="610.54" y2="252.97"/>
	<line class="st1" x1="652.37" y1="296.67" x2="608.04" y2="296.67"/>
	<line class="st1" x1="696.7" y1="296.67" x2="652.37" y2="296.67"/>
	<line class="st1" x1="696.7" y1="249.61" x2="696.7" y2="298.75"/>
	<line class="st1" x1="760.77" y1="249.61" x2="694.44" y2="249.61"/>
	<line class="st1" x1="760.77" y1="231.28" x2="760.77" y2="251.88"/>
	<line class="st1" x1="799.89" y1="231.28" x2="758.29" y2="231.28"/>
	<line class="st1" x1="760.77" y1="251.88" x2="760.77" y2="252.11"/>
	<line class="st1" x1="694.44" y1="249.61" x2="694.2" y2="249.61"/>
	<line class="st1" x1="696.7" y1="298.75" x2="696.7" y2="299.17"/>
</g>
<g id="Layer_2">
</g>
</svg>
